<?xml version="1.0" encoding="UTF-8"?>
<svg width="24" height="24" viewBox="0 0 24 24" fill="#000000" xmlns="http://www.w3.org/2000/svg">
  <!-- Outer ear shape - filled path -->
  <path d="M12.5 2C8.91 2 6 4.91 6 8.5c0 1.5 0.4 2.9 1.1 4.1c0.5 0.8 0.8 1.7 0.8 2.6c0 1.5-0.6 2.9-1.7 3.9c-0.6 0.5-0.9 1.3-0.9 2.1C5.3 23 6.3 24 7.5 24c1 0 1.9-0.7 2.1-1.6c0.2-0.9 0.4-1.8 0.4-2.7c0-2.1 0.5-4.1 1.5-5.9c1.8-3.2 2.5-5.2 2.5-5.3c0-3.6-2.9-6.5-6.5-6.5z"/>
  <!-- Inner ear detail - filled path -->
  <path d="M12.5 6C11.1 6 10 7.1 10 8.5c0 0.3 0.1 0.5 0.1 0.8c0.1 0.4 0.2 0.8 0.2 1.2c0 1.1-0.9 2-2 2c-0.6 0-1-0.4-1-1c0-0.3 0.1-0.5 0.2-0.8c0.1-0.2 0.1-0.5 0.1-0.7c0-2.8 2.2-5 5-5c0.6 0 1 0.4 1 1S13.1 7 12.5 7v-1z"/>
</svg>
